<svg width="384" height="400" viewBox="0 0 384 400" fill="none" xmlns="http://www.w3.org/2000/svg">
<rect width="384" height="400" fill="#DE671E"/>
<path d="M72.0859 76.8945C72.0859 76.9229 72.0859 76.9513 71.968 100.411C71.85 123.871 71.6141 170.762 71.4297 220.035" stroke="#DE671E" stroke-width="2" stroke-linecap="round"/>
<path d="M52.8555 282.012C52.8812 282.012 52.907 282.012 52.9815 263.906C53.0561 245.801 53.1785 209.59 53.4188 189.247C53.6592 168.905 54.0137 165.529 54.4062 161.91" stroke="#DE671E" stroke-width="2" stroke-linecap="round"/>
<path d="M82.8624 34.8535C82.8736 34.8535 82.8848 34.8535 112.202 35.3172C141.52 35.7809 200.143 36.7083 235.007 37.6943C269.871 38.6802 279.199 39.6966 285.284 40.2355C291.369 40.7744 293.93 40.805 296.184 42.3613C301.297 45.8904 302.521 51.3996 303.117 58.4021C303.607 64.1661 303.763 74.4673 305.641 110.715C307.519 146.963 310.932 208.858 312.298 243.142C313.663 277.426 312.877 282.223 311.313 288.449C305.018 313.497 298.174 321.775 288.061 333.412C282.025 340.357 277.929 342.231 276.189 343.541C275.311 344.202 274.5 344.931 247.679 344.995C220.858 345.06 168.066 344.456 135.878 343.52C103.69 342.584 93.7065 341.335 88.244 340.026C81.7772 338.477 78.5079 324.517 73.7467 305.132C71.8185 297.281 71.4579 293.33 71.1984 254.5C70.939 215.67 70.939 142.046 71.1692 101.35C71.3994 60.6544 71.8598 55.1164 72.2157 51.4355C73.0652 42.6469 75.6031 35.9499 78.9475 31.9611C79.898 31.3132 80.9249 30.8655 81.8935 31.0367C82.862 31.2079 83.7411 32.0115 85.7418 33.6274" stroke="white" stroke-width="12" stroke-linecap="round"/>
<path d="M112.565 80.0336C112.565 80.1225 112.565 80.2115 112.569 80.8142C112.572 81.4169 112.58 82.5306 126.193 83.6026C139.805 84.6745 167.023 85.671 191.243 86.99C215.464 88.309 235.864 89.9203 256.487 91.5804" stroke="white" stroke-width="8" stroke-linecap="round"/>
<path d="M116.721 102.483C116.749 102.483 116.778 102.483 131.874 102.781C146.971 103.078 177.135 103.674 208.213 104.287" stroke="white" stroke-width="8" stroke-linecap="round"/>
<path d="M120.147 121.213C120.214 121.213 120.281 121.213 124.015 121.352C127.749 121.49 135.148 121.768 139.507 122.007C143.865 122.246 144.958 122.44 148.49 123.33" stroke="white" stroke-width="8" stroke-linecap="round"/>
<path d="M110.637 156.75C110.665 156.75 110.693 156.75 111.006 156.855C111.318 156.96 111.914 157.17 118.084 157.447C124.255 157.724 135.982 158.061 147.846 158.408" stroke="white" stroke-width="8" stroke-linecap="round"/>
<path d="M132.711 238.766C132.711 238.789 132.711 238.812 132.548 246.375C132.385 253.939 132.059 269.041 131.455 278.867C130.597 292.837 128.349 299.077 126.849 302.72C124.23 309.082 117.944 312.633 112.397 314.413C109.714 315.274 106.766 314.515 104.165 313.731C100.069 312.498 96.4656 302.846 94.582 298.386C94.4318 297.815 94.3538 297.326 94.2836 296.651C94.2135 295.976 94.1536 295.13 94 294.174" stroke="white" stroke-width="8" stroke-linecap="round"/>
<path d="M170.889 260.857C170.873 260.872 170.386 261.692 168.895 265.244C165.873 272.44 164.386 280.792 163.802 286.643C163.211 292.561 164.005 294.797 166.245 299.177C169.743 306.016 175.89 309.497 180.314 311.942C186.198 315.195 194.065 313.095 196.552 312.235C198.967 311.4 200.473 308.643 202.365 305.629C203.92 303.153 205.492 299.12 207.83 289.742C210.007 281.009 207.554 275.526 204.143 269.082C199.667 260.628 193.446 257.928 189.132 255.754C185.647 253.998 181.707 254.204 179.134 254.457C177.499 254.919 176.074 255.376 175.147 255.793C174.695 256.049 174.282 256.395 173.406 257.311" stroke="white" stroke-width="8" stroke-linecap="round"/>
<path d="M231.295 232C231.571 232.613 232.377 234.982 233.404 250.176C234.348 264.146 235.322 290.874 235.732 301.973C236.141 313.073 235.746 307.747 235.583 304.554C235.275 298.514 238.915 291.865 242.011 287.176C245.995 281.141 255.222 278.623 257.645 277.934C260.601 277.095 264.388 277.875 269.244 280.388C276.682 284.236 281.311 295.068 282.872 300.4C284.369 305.512 282.368 308.546 281.003 311.116C277.783 317.177 269.104 321.31 266.411 322.576C261.018 325.11 253.213 322.813 249.563 321.835C245.423 320.725 241.532 316.762 239.984 314.514C239.77 313.499 239.701 312.391 239.679 311.19C239.671 310.573 239.667 309.941 239.598 309.289" stroke="white" stroke-width="8" stroke-linecap="round"/>
</svg>
